<?xml version="1.0" encoding="utf-8" standalone="no"?>
<!DOCTYPE svg PUBLIC "-//W3C//DTD SVG 1.1//EN"
  "http://www.w3.org/Graphics/SVG/1.1/DTD/svg11.dtd">
<svg xmlns:xlink="http://www.w3.org/1999/xlink" width="661.229205pt" height="275.4pt" viewBox="0 0 661.229205 275.4" xmlns="http://www.w3.org/2000/svg" version="1.1">
 <metadata>
  <rdf:RDF xmlns:dc="http://purl.org/dc/elements/1.1/" xmlns:cc="http://creativecommons.org/ns#" xmlns:rdf="http://www.w3.org/1999/02/22-rdf-syntax-ns#">
   <cc:Work>
    <dc:type rdf:resource="http://purl.org/dc/dcmitype/StillImage"/>
    <dc:date>2026-09-08T02:24:17.030049</dc:date>
    <dc:format>image/svg+xml</dc:format>
    <dc:creator>
     <cc:Agent>
      <dc:title>Matplotlib v3.10.9, https://matplotlib.org/</dc:title>
     </cc:Agent>
    </dc:creator>
   </cc:Work>
  </rdf:RDF>
 </metadata>
 <defs>
  <style type="text/css">*{stroke-linejoin: round; stroke-linecap: butt}</style>
 </defs>
 <g id="figure_1">
  <g id="patch_1">
   <path d="M -0 275.4 
L 661.229205 275.4 
L 661.229205 0 
L -0 0 
z
" style="fill: #ffffff"/>
  </g>
  <g id="axes_1">
   <g id="patch_2">
    <path d="M 57.29191 184.856538 
L 75.080265 184.856538 
L 75.080265 60.760385 
L 57.29191 60.760385 
z
" clip-path="url(#pe6ad7eb4dc)" style="fill: #dce8f0; stroke: #2e6f95; stroke-width: 1.3; stroke-linejoin: miter"/>
   </g>
   <g id="text_1">
    <text style="font-size: 9.5px; font-family: 'NanumGothic'; text-anchor: middle; fill: #4a4f55" x="66.186088" y="45.868846" transform="rotate(-0 66.186088 45.868846)">입력</text>
   </g>
   <g id="text_2">
    <text style="font-size: 8.6px; font-family: 'NanumGothic'; text-anchor: middle; fill: #6b7178" x="66.186088" y="203.719154" transform="rotate(-0 66.186088 203.719154)">28×28×1</text>
   </g>
   <g id="patch_3">
    <path d="M 117.245254 184.856538 
L 158.599378 184.856538 
L 158.599378 60.760385 
L 117.245254 60.760385 
z
" clip-path="url(#pe6ad7eb4dc)" style="fill: #cfe0ee; stroke: #2e6f95; stroke-width: 1.3; stroke-linejoin: miter"/>
   </g>
   <g id="text_3">
    <text style="font-size: 9.5px; font-family: 'NanumGothic'; text-anchor: middle; fill: #4a4f55" x="137.922316" y="45.868846" transform="rotate(-0 137.922316 45.868846)">Conv</text>
   </g>
   <g id="text_4">
    <text style="font-size: 8.6px; font-family: 'NanumGothic'; text-anchor: middle; fill: #6b7178" x="137.922316" y="203.719154" transform="rotate(-0 137.922316 203.719154)">28×28×16</text>
   </g>
   <g id="patch_4">
    <path d="M 200.764367 153.8325 
L 242.118491 153.8325 
L 242.118491 91.784423 
L 200.764367 91.784423 
z
" clip-path="url(#pe6ad7eb4dc)" style="fill: #cfe0ee; stroke: #2e6f95; stroke-width: 1.3; stroke-linejoin: miter"/>
   </g>
   <g id="text_5">
    <text style="font-size: 9.5px; font-family: 'NanumGothic'; text-anchor: middle; fill: #4a4f55" x="221.441429" y="76.892885" transform="rotate(-0 221.441429 76.892885)">Pool</text>
   </g>
   <g id="text_6">
    <text style="font-size: 8.6px; font-family: 'NanumGothic'; text-anchor: middle; fill: #6b7178" x="221.441429" y="172.695115" transform="rotate(-0 221.441429 172.695115)">14×14×16</text>
   </g>
   <g id="patch_5">
    <path d="M 284.28348 153.8325 
L 350.774425 153.8325 
L 350.774425 91.784423 
L 284.28348 91.784423 
z
" clip-path="url(#pe6ad7eb4dc)" style="fill: #cfe0ee; stroke: #2e6f95; stroke-width: 1.3; stroke-linejoin: miter"/>
   </g>
   <g id="text_7">
    <text style="font-size: 9.5px; font-family: 'NanumGothic'; text-anchor: middle; fill: #4a4f55" x="317.528953" y="76.892885" transform="rotate(-0 317.528953 76.892885)">Conv</text>
   </g>
   <g id="text_8">
    <text style="font-size: 8.6px; font-family: 'NanumGothic'; text-anchor: middle; fill: #6b7178" x="317.528953" y="172.695115" transform="rotate(-0 317.528953 172.695115)">14×14×32</text>
   </g>
   <g id="patch_6">
    <path d="M 392.939414 138.320481 
L 459.430358 138.320481 
L 459.430358 107.296442 
L 392.939414 107.296442 
z
" clip-path="url(#pe6ad7eb4dc)" style="fill: #cfe0ee; stroke: #2e6f95; stroke-width: 1.3; stroke-linejoin: miter"/>
   </g>
   <g id="text_9">
    <text style="font-size: 9.5px; font-family: 'NanumGothic'; text-anchor: middle; fill: #4a4f55" x="426.184886" y="92.404904" transform="rotate(-0 426.184886 92.404904)">Pool</text>
   </g>
   <g id="text_10">
    <text style="font-size: 8.6px; font-family: 'NanumGothic'; text-anchor: middle; fill: #6b7178" x="426.184886" y="157.183096" transform="rotate(-0 426.184886 157.183096)">7×7×32</text>
   </g>
   <g id="patch_7">
    <path d="M 520.245246 172.446923 
L 533.219089 172.446923 
Q 537.273415 172.446923 537.273415 169.965 
L 537.273415 75.651923 
Q 537.273415 73.17 533.219089 73.17 
L 520.245246 73.17 
Q 516.19092 73.17 516.19092 75.651923 
L 516.19092 169.965 
Q 516.19092 172.446923 520.245246 172.446923 
z
" clip-path="url(#pe6ad7eb4dc)" style="fill: #f2f5f8; stroke: #26282b; stroke-width: 1.3; stroke-linejoin: miter"/>
   </g>
   <g id="text_11">
    <text style="font-size: 8.6px; font-family: 'NanumGothic'; text-anchor: middle; fill: #6b7178" x="526.732168" y="191.309538" transform="rotate(-0 526.732168 191.309538)">1568</text>
   </g>
   <g id="patch_8">
    <path d="M 581.871 153.8325 
L 594.844842 153.8325 
Q 598.899168 153.8325 598.899168 151.350577 
L 598.899168 94.266346 
Q 598.899168 91.784423 594.844842 91.784423 
L 581.871 91.784423 
Q 577.816674 91.784423 577.816674 94.266346 
L 577.816674 151.350577 
Q 577.816674 153.8325 581.871 153.8325 
z
" clip-path="url(#pe6ad7eb4dc)" style="fill: #f2f5f8; stroke: #26282b; stroke-width: 1.3; stroke-linejoin: miter"/>
   </g>
   <g id="text_12">
    <text style="font-size: 8.6px; font-family: 'NanumGothic'; text-anchor: middle; fill: #6b7178" x="588.357921" y="172.695115" transform="rotate(-0 588.357921 172.695115)">64</text>
   </g>
   <g id="patch_9">
    <path d="M 643.496753 136.459038 
L 656.470596 136.459038 
Q 660.524922 136.459038 660.524922 133.977115 
L 660.524922 111.639808 
Q 660.524922 109.157885 656.470596 109.157885 
L 643.496753 109.157885 
Q 639.442427 109.157885 639.442427 111.639808 
L 639.442427 133.977115 
Q 639.442427 136.459038 643.496753 136.459038 
z
" clip-path="url(#pe6ad7eb4dc)" style="fill: #f4dad7; stroke: #c1443c; stroke-width: 1.3; stroke-linejoin: miter"/>
   </g>
   <g id="text_13">
    <text style="font-size: 8.6px; font-family: 'NanumGothic'; text-anchor: middle; fill: #6b7178" x="649.983674" y="155.321654" transform="rotate(-0 649.983674 155.321654)">3</text>
   </g>
   <g id="text_14">
    <text style="font-size: 11.5px; font-family: 'NanumGothic'; text-anchor: middle; fill: #2e6f95" x="162.704383" y="30.977308" transform="rotate(-0 162.704383 30.977308)">특징 추출부</text>
   </g>
   <g id="text_15">
    <text style="font-size: 11.5px; font-family: 'NanumGothic'; text-anchor: middle; fill: #c1443c" x="507.322083" y="30.977308" transform="rotate(-0 507.322083 30.977308)">분류부</text>
   </g>
   <g id="text_16">
    <text style="font-style: italic; font-size: 9.3px; font-family: 'NanumGothic'; text-anchor: middle; fill: #6b7178" x="255.953878" y="214.639615" transform="rotate(-0 255.953878 214.639615)">가로는 줄고 깊이는 늡니다</text>
   </g>
  </g>
 </g>
 <defs>
  <clipPath id="pe6ad7eb4dc">
   <rect x="8.64" y="8.64" width="616.257533" height="258.12"/>
  </clipPath>
 </defs>
</svg>
